<mxfile host="Electron" agent="Mozilla/5.0 (Windows NT 10.0; Win64; x64) AppleWebKit/537.36 (KHTML, like Gecko) draw.io/26.0.16 Chrome/132.0.6834.196 Electron/34.2.0 Safari/537.36" version="26.0.16">
  <diagram name="Page-1" id="SbJUCJbpOzsdsSacWQtF">
    <mxGraphModel dx="2206" dy="884" grid="1" gridSize="10" guides="1" tooltips="1" connect="1" arrows="1" fold="1" page="1" pageScale="1" pageWidth="850" pageHeight="1100" math="0" shadow="0">
      <root>
        <mxCell id="0" />
        <mxCell id="1" parent="0" />
        <mxCell id="Jfrkg1N4HI_RpHwfWc3V-1" value="" style="shape=image;verticalLabelPosition=bottom;labelBackgroundColor=default;verticalAlign=top;aspect=fixed;imageAspect=0;image=data:image/png,iVBORw0KGgoAAAANSUhEUgAAA84AAAITCAYAAADWwkUdAAAAAXNSR0IArs4c6QAAAARnQU1BAACxjwv8YQUAAAAJcEhZcwAADsMAAA7DAcdvqGQAAHSYSURBVHhe7d0JuCTdWdDx6r53Zr4v+wohsgRDIjGIAaIsCZJFY0JAE4hPJGyRRQRBBATUJ7Kq8CjGoCwaICIBA4ILIIuouLBHRBYhUQJhCwnZty/fzNx7uz3/U/X2Pben+5w7VTPfzL39/83UrerqWk6dOnXqvFXV3bPlwXJ5eKXr9i90XbeXuqPU7XfdIvUWs2W37GZd6nX7qcvv8QaYdt51B6l/2I9JU+ZZu7007fJqHtUt08jFWse4vdQhLSLPx+Lo5y6vfOiG6VZ9xIQY+iRvNS69IM2TtOYnL2paCZiVG7RJY/55Zf6YtVzEkhcpQ5dDl9efOnYGXc68tDeYLA+mgbwjxmDeoQurdax1xSQn5PSC6dZsm+d6tJZBgVxXzrNtOMQmnlVT87g2/7b3Yvxp8q15/A39MWLfxTLK9MYw5WN9O9bTX0tD7b3TqG0/6aBi1Xitqm9935/Waecbu/zQKl+t5W+q/06LdeflV1bSOv+R/8y+Plm8pl++11jcNWrbz3tT6hfem5J/rH/sqTdEw2qb2vavVBJR3X+n2Bmx/pi0nGV9+3kv3ue9sgsxDR3jLx/0L/aPu8PU5fZneueINlBCMyejP7yX26x5fBrY4kKt/TWoTdEqXuvVd05XP3jNcNkPrLudwu2mzM9868VvPc0H/EkTrI+PPvPH61jOeh8Mr79mz0YXNk1Tzrv+/omEpRGrtA3Dq9dr/RDxzDbr05e2LfO0WG9025R5s471tpoPrfLbSjtx4jakm+XX0t+qXlvpqyHtx/nDUGzNUKrTy9nyaLm8mkrxxQtpBIHOIk2YUnXl6EoqJATO/QbspRpnP701O2LG1KWaZZkqj6spAj5K/VWAnabj1SIFXTlWSlhKLCvMUsXL23nO9EauwAiW8vAsrS8lggXw5iCvdujnLoZzPw3Qz3+pJ/vXYzDn1atXUzalNJLO1M3n6dUwTFeV3z5O9yYL8nmrZVpffR0HB5wYtpl1ly7cmZNAri/SSWKxPEzZe5Tyry8Il69cSdvRFwT6KcdTfy/F4/0hs1iw/O3bcPHixWHoWuzrg6Orud8vgm2J7emH87rZeSfG9/2+TBzl/vH4kF6n+Rb5zBbzD10kN5eZWv6m8ry3/dDL6Wf7Uz8vqpDXlMbl8pD6vEY5HWVxkd7Pm7fFcnVhYLM+f4YXI+zv16qmtr58VTaggv12gStjJ7Yx59xxl9+K1ycxZi9XCNv3YS3/qIuWKf/GZl+uU6i/iiWsUppG5fQNx0keN4gykOffq+//o6N61d6qY2r1xyyt+OiA42f7Mur1T2oYXuBK6nat9Le01s/xNUXt+EYr/a3trx+/vJe2rywQeV9Eh6G/bTH57do6bq7W+aeOdKf8LSvF60D5TZENQ9fkQD62Up/6KYbJq5PTLVP9sWnuY/Xykepv2jn9Trhu1BuzVP/l898WreN3Tusjl5txZo39Vy+/KW1Lzn/bj5Fq/bTcSzmwn7prj+GYi/yPFJCWE+lJ5/aLHP+MSjOQDQS84cQ1/ZiN94dpc7ZfOezfS4vhBtBh2t3s0ljO3tr5m0lzxzJSf3+vfv48PIzbRddiuRcv1Oufev2Xyt8h7/epIz152xge+swfwyGmY+BCyt9K8avufxaR87g2zWr/R/9Ynv9okfrH8zNEemN4/wLlox9mhuMpY7qTZSfWQr8fTnOk/+X4LI1jH7/tyrvy/samae59x72uGb96Pw1dvXI1Tze8zIP55TB8YWj/xiQoJh8C5/Ldk2iT1xw23q9h/f3+619v0jr/5vQdZ8g1qu3n1KWwsrL1adGN9s2sv3K1Vav87s/rx1/NKv05A49SP4611KZbpnphebGbHaYUECReukhVveiOFof5pEnjk6yN5JEMwqscyueRaZiNZ9rUZ6E01HKFlmskQrRy5zATS+037PCIiicNpQRygugrT172ry/s35HeL7G+40HkJebhKKKkhX5KTWPHtBwcEFgS4BVB8yoBbX1gt129YbjM+6Hfws1q88+WnBT690kGBeAonQQ5GBim49TMX/oEzYitY87+wB8n7xcKXB6KpZT9+pKPpyjnv+f06b927cfpOjmcJ1xD5V2vms6vPl8oXWXGDDm2Ia9Wivf64l2buKZf89i50c9/vIQh9blD9Let5Fbu//6onoa6uGZi9XrT3fr09yXoGCvcstJNab3N87etbD1cn37TUwmO2dfygtFHC84vaTi9F5MdT77s8n2A1ZjrxdET3fWj3lim7S/rj3W19/rjd8oZeMqczEsjj/bH2BqMtgWB0bWN19OkK++3452ZB8vStNozZRYOC2a6/F4ZNbGMYTlhmQKH4a1++WmgrLMvpKXw3ja1wIf0z3Oju1zjSfW2JBdu0rx9Y7ZPfz+02o71wDkm5TWrTmFzdQ319mN6P3W1+Zcntv/klDngZiFlJVxOwnC5/g0r4ugpxSQ5W/NAGlNOUg6nt47ShOspXC0jdfW9209xPMfx4ulHh3K1Mcz+309rr9U/lL9t2JfcONk+dx2prm1dUxSmsdLspL1Wx9VMTv9UeftTlxPBeYZIlq3p92w+ut5+dbE8uPL27o5L8xSlL7urVy93c64mzC+kiiQdwMMWcCBxx/liqlPn7PNZmia9f8Qd57yT04GagrW9vNJFd3l5Oc3bV05kIQWe1fb9rrvjjnvld9KopC+kfZDHctKYEwfGkIiw9vIaw6yr2UeoFXocHNbu+KbsLq4YblK94sJBnwPn7QfXnXfcOQxdKzebj1KXNoHdwRXXRdpp/c7vK5SDZX/hIu42c6KOqiyf7lLFXbviWL1jk9a3f5Eryswf21n2Z93BwXDhZMP7XLJZ5Gf9y/kHQ6Hez58tGN7blMy12dbVsp/FReBfTpbXPKyL8hnDeZo0HNNy3BymvIvSv8ket0QqWhdObq5Ugmbj71hz7KRaJQ2V6U95ERXSiS7J44/17xymbnv5r10xZa1T7jjnJeSde7wEXkYqGV4M5T/KAGKLSNnywt6q7tykdUe1/kQJ5efaRmng+L8wv5j62xPQCixrV3Qx7Y5ke/214/M02hcu6yvo66ft6lfMUwmYrdffTF90OXlr41ZSvcMV6LJwXafW/qumP8065cJzvlKfTz/b01BLHxfO8+YPeVJOSVXBa+6o0s/dkNSYLodtaVwt+1pPHMzzHYvteXBYueOYU5JmX6vWTqitn9n297ijVVlAw+KQJ062q9c/i9wWPM7Ra9XrX9qNBM7XpiD2CXd8w3pZpEVyeLn/rF8EtPGgI3LxSh0vy33M+0zLuAt5B/SvmWQViKVyl9/f28/z5/fSAM2lfEc69fMyrx6mdQzzbHDnnbX217I7uHp37m9Tzf802/6FS6lPCgfFYCyVfjlcqpdepl+fo5DeihsvW60C503L2ZKqIkGLdPzE5jFVuam8PlwM51f+DIuJSfL+H8oMw6vx/Emv2Z/7d1w6sfaYJhxeuXLtcvmTxuUnBoeYplwGacyvU3+W9h/D6+kG5WbvqF5+avVffmeo38YgSbkMV9TvOM+6i/v19kP9+OeJTfbv9kTU2y+Uj3r91Xwirrp9df35J9VCKfmL+VEqC6nL8RPbluoN7jjfnfZgauKlyupqSiiNVTZ7L4UNl9JY+j3G05TOyaVkDqhomIYsYiyfb2agb/bFxvdVaFnID1PG5Fe5gPYd//Ps6c8FxgyFq58n/WWD8nC54xgf0/RyAc8nrn7+MfYouMP6N/VbO246tq9eOLeh0ju6nMK2lBEEzeQrFzFyAD3sBC6O0MAmRwmac0W7fZHXqFxwzfmedmuRxtg7x3vpqC+FGzF6kUpQP3+5Z8HrFOpPeBQDrXY/J9pV1ZV65RaQT5SB1SKK95HfaTyq21bJoFOoVXpts2H/jFxGyqC+XVAWEpYVXd1ppoxjcRPeyXVA//K69es+mf95XLnAGN60EiZOGVBu/fWqHd9tqeyl6pXjf5tWXFRr16ERdzS11l/ZvadSOS9nrfS35q+mLxcWzoCUgHJD8xt9l/dNvBf9Y7Nc2CaUoFYGtnbARP3RM24n9uckTiApjWvJZImx1BguX4OiG914J4//68OWjz+C+/k4+4zbR8wV3TatR0X3JpUP7ln3Z89NS2Ec688Xn4spTgzFHdehGNDkjBQzHfuWQ2RVJ6eRDDJtHjW0UfMwg6nLvWGevHm8mfo5cE6DXAqh4y0uW9TKTwR2m3DD4WKuP/Lar1tO2oK9z9DxUlbbhrQBDK+vgdfMlfOHEVvULxyx7G1L6NfYX+yItZ9MRZ4r7d/yxkuZdob35v2FecZtXspJkRL60WG9Hy5fuTwM9aKc5HnT8IU7hidaN640TZUD436p5SQMR4dyGAxzy+gCpXXsSWx9Y67Tepo26cPALdIO2ptNi2+W19w4OSk+EroV8V1tI2oNlJR/bN3I3E/7Ly17uPHYX6FLtUIKnvvlETdd6GbvWCyXi4N3dndeJHxadlf5bGoaurB337Ty4+Yj+5K6gOJOwTu4QmCTQu2UAdxhW90p7pfe7XPBLE+RujQuykLuM//BYX43Z0C+e53Gkxepz+AFlsW0gyj4WRqOej+WdwIj0yI5QMfK9UKBQJ3GenStiidfsa4k4GJfs26WZrt8+e7U316477i0/ih7KeXcVQpeWhAXAIYdQ9BMVlHp9elP6Uz7r/+Xps1vMn9CHl+Tsceqn6FKb/Eo3WpZ2bD8PJL8YXgzJstf3pF3+tp6cp6S7v7lWAf5iYBt0olv/+T+idVFPz9qU2RPmZycagLn/uVIpG/8ElpPRNSlumBe3NG/btxtZ/9HHqfl5E1hebHM9eGk2Nzlor+INwZzTTn2WUKut2L9qXcipel1ecckJluhPkwFlHpxm/Ydr8oBklSvGKeN399L+289XYXG4puBZWXTTqW1/trmnUarzdJKfyt9BweVBObbpXHHeX1F6fWqcNIvh8My7T9eNzaiolW+6p/xTcjAkavPm9eo/6qPuqYF7KU2werCT+rFsnI/vT4Y7vjG63JdzMf3pNQuHO3vV3Ywy2s88dWU9984bMtB6wBs4DsYailofUfKnRdTA66yhFr5Iv0Eo2T/iXZb4eDq1dwOoZ6j4zOJqzqPeZiZPkkYllUuahh9zch4eRhP/KV10EbneI95SNPh1T79TM+d5rjjTJ96fz+9vVepRC42bpwcHNTvONfv+KX27xBYhryklL5YInc8y9ch8ry1/8sLFuv6M9+wL5o2bWNu2eelhBiK/tX8HTr96zxuLTmbAqt+mb3Dq/38J2ZLC4rXd9bax2m6g8t9YJ2nj0QlvCaW2bt0qY9r+tErkdbDofyvl0tww2+W4pvaHefq+T0tc7/yHUItrDW6baqBc9r3XHinv039iS32f0SP14/ym5de2YDqHe808yLV77Xtr5kvU32U77ymFySE73pYfd8D49O56XK+dXM1veSuc19h7+9dStNzYj1ZcFjGelby/vo0IdZbWn8/lMPI6e0Hr7U+8SZbZz5LTrOhm6SNL2dd5cV6KLxWfW6c5543dqtvpns+O25lLkzf2j7169tw+uVOTcHU3Ks1eq6xdTPv+VKj2wWFgq5WBmrvTS3Bt97YLehzpX7stJZ9Y468W7MPbtRap+fB+CVM3j/lAoaJN4xqWk/HpvmYpuyYJrrx+uDxZlnfrk3Grr9f9pTUX7uEbek9zXaUWqkaler1ROSF9EtqpW/T+8x5Xe2Hm2Da2kfl4gmny72bZ+r253s+LCQPpG64iZcf1SaOvpIC5+Xyaref3iCMOjha5M/XDPcgJUmSJEk617idnGPlfNc8XszT+BQXp8C58ryAJEmSJEkycJYkSZIkqcLAWZIkSZKkCgNnSZIkSZIqDJwlSZIkSaowcJYkSZIkqcLAWZIkSZKkCgNnSZIkSZIqDJwlSZIkSaowcJYkSZIkqcLAWZIkSZKkCgNnSZIkSZIqDJwlSZIkSarIgfOsW+YXM/6kQfp5WJIkSZKkHbCcEQz3XfyLwHhOyHy0OEp/F7nbm81SNG3YvOuuXLnSHR0dda95zWty/x3veEce/6Y3vSn3pZY3v/nNuf+2t70t9ylL73rXu7rLly/n19pdBwcHuY7BO9/5ztx/y1vekvt33XVX7mt3ve51r+sODw/zueftb3/7qqzg6tWrw5B2GWVisaDd2tcngfIRr+++++7cB/VL+VqSNlnOFrlbrLpl7oiXMTyqHS/7AFtaLpfd3t5ed7/73S/3L168mMfHiUpqIUjG/e9//1X/Xve6V3fHHXfk19pds9nxxdmoW6KcUEa02zjv7O/v53LC8KVLl4Z3jsuLdhttlEAbJdBGiXbKnXfemfvgvEOZsg0jqa2vX/hLjdHfce7H9YHzqv6Jh7a16+JEdN/73jf3o6H7ile84sTVf2mTt771rd3//b//d3jVu/e97z0MadfRgKXjjmKUk/m8Px2VQbV2U1w8Ke8k/s7v/E73q7/6q8Mr7bIImqMfdQe4YPu///f/Hl4dX8AlcL5w4UKucyRprKG2oaHSd8vUM3gWJ5gSV2l59PYHf/AHu3/37/7dMFba7Od//ue7//Jf/svqMVxEQOQVf8UTLb/7u7/bvexlL+v+63/9r/nRXKkUj2XT57zzPd/zPT7Kr3wuiWCZuiTOKVxoef3rX9/9y3/5L7vXvva1+T0+GsT4OP+st20k6XqsAuflNZ12HVdqOSFxh5mrtQz/+I//ePfDP/zDwxTSZr/8y7+cgyE+E09AFJ+R52q/V/wVwQ+ff/+hH/qh7md/9mdP3DXSbovvQYhgh8+ncu6h8zsSBC68UT44n0TgzHnm93//97vv//7vz33ep+1CAO15R9KNcOKOM8HycjhRSTRuo+ECPoP4e7/3e90f/MEfDGOkzWjo/vqv/3oe5pHceOSS4MgASRH80PilPuHiXJQLAyNFfRF3B/msKk88vfGNb+we/OAH53HabdE2iadXwEVaLsZxtzne57F/PhcfF22ZXpLG2tCC9W6zenFFN05KNGK4C11+4Ya0CQ0VHtO+z33uk1/HHQEaLTZcFOUiGr18AVSIsqLdFeecCKApH5x/fJxfIc4jXHCLIDm+RI7ys36BlteUJ7+VXdIUuWaZLWfDl4UZNOtYfPtxnJRo0HI3yMBZLZQdru5HWYlgiIZvNIa1u6JuoT6hfolvSubOs9+qrSgP8cVOoJyUr7W7OIfE3eMyQKbu4AILTzlFgBwfC2EcvHAraYqhxiEwOu52pVrh8zB8kQT4FuDAb/3Fb89S+cZV7l1r8MdV//hsUFzZXb+Su4siTygTPD5Ylo34PVqUV7dp9PGbpLuA/KABE/kUgRKNl/Nw4SUa8PSjfiDoo1HG71UjPtdN+Qj/+T//52GoVwYC5Rep7QLKyHu/93vnzyJyB5p8LH926Dwp76LHuWW9LiA/yvqCb5GOeoVHT8s6BuV3TbD8KIfn4Y59bEN5riGYjoBax171qlcNQ13327/928PQyY88lO2bqJPPMs4t8bQKbZI4NhhH2aGLC3BlGWJ8nItuZxHs0xaNXzFhmH0Xv0XNRxdiH8c0oA6JiwNlfcL0iPMR83KuivIQ9ccm5/WC1Z/4E3+i+8Zv/MY8fJaOi/L3yDmPRFvjNCgHZZ0Bjp+ocznvhF/6pV/K+RJ5Q3miLJTljW+wL7/FPpZzns37w2u2+tcHz7vhDW94Q/f3//7f7777u7+7e8ADHpDHUanQsI+K5xd+4Re6v/f3/l73H//jf8yVNc5rJaLTi4sKlImHPOQhuc9FmK/92q/tHv/4x3cf8iEf0j33uc/tnva0p3XPf/7zuw/+4A/O417wghecqHR0NkUDnv0eP6tEvUB98Y//8T/OwWA03CIo/A//4T90P/ZjP5ZPdLzmJMQ0nGj+2T/7Z93Xf/3Xn7joorONfUwDmH0ax/xv/MZvdN/+7d/ePfaxj+3+9J/+090nfMIndB/6oR/afdInfVL35Cc/uXvmM5/ZfeVXfmX+LgnKw7//9/8+z/ce7/Eeq/MP+P4AAucoLzSkKE+Uwzh36fyioUxbhf3/t//23+6e97zndZ/yKZ/SfczHfEz3jGc8o3vc4x7XfcmXfMnqIl5crKSOOksBwq6KYD8uJLK/40IB+/J//s//mc8Z1Bu0Mf7SX/pL3fd+7/fmaTk3EQgRGDNM3fAVX/EV3T/9p/8073/aK6973etywEh5oV3yaZ/2aTmIfM5znpPro/d93/ftvvzLv3x1ISbOZdRj5UWYsyouKBAD8AWmIM/OSt0Z5YP0cl6In42lbfHyl7+8+wt/4S/kfUn3yZ/8yXnfs63g+P8n/+SfdL/1W7+1ygfKFecr3vuZn/mZ7q/8lb+Sx//xP/7H86+jfN7nfV730z/906uLl3G+oTzxxZ6/+Iu/mKdHPKF6ng2X4tKGLvvHtXPXjzz3KGTf9E3f1P2Nv/E3ckMF/DwK4jN3fIvnV33VV3U/8AM/kF+DAqbdRoVFwMOJJMpD3E2l7NDxpUf/43/8j1xBUTFxEqSC24WK5bwrL5wE7mTQICEw+k//6T/laSgnjOcE8+IXvzgHzv/23/7bPH2cyGiIvOQlL8nz6HygXmDf08ChnohywgVaxtHoYJjzDg0d+kxDmaGRSj3Czy+VP/3H+SrurP3UT/1Urlv49noaMVEeafjEsM4vziMEQJx7aOj+9//+33MAQBmibHGBhrISgRd9yiFlkk63t7grzj7jeKYfwSt39wiIvu/7vi9fQKP+4FvEv+3bvi0Hz5xPaGPEXWvKx4te9KJ8jvnJn/zJPI6y88AHPjCvh/qIdi/BDxd8abtQXqI+CpQrlhvpOOu4sMCFp3gCiG07K20z9g/HMfskzi28/m//7b/lIJkL+K985StzWaHNQce5gps7r3jFK7p/82/+Ta4j4uMLlAECYp5647fy//k//+d5PJjum7/5m7uv+7qvy/MyD+sk/1796lfndgvr5fyEXWjf9necc7DMxsZd591AxUKFxFXZl770pXkcV1hAQfqJn/iJ/KgC01ChhLPwqI9uLholUdFSgVBGHvSgB+Urc5zE+Ckmhv/wH/7D+Y4zlQuP6f7Nv/k3cwWls40AZf3ODcHOox/96Nwg4SkWxEmEhgknHRq6XITj5EOZAY9GcfeIuod5ORnq7KNxQZng1whiX/ON0B//8R+fG7DUE5/xGZ/RfdAHfVC+a0iZ+YZv+Ibui7/4i/N0XHgrf8GAiy+xHBpJEUSzDs5JdAbNuyEe1aQeoRH9ER/xEflpJy7KUY4IpL/ma74mB0jgQg5tmnvf+96rYFq3L84bnAfYz+xj6hBw5/k7v/M78778u3/37+b2KYEyN3i468z5hwty1D3UIVxMoUy853u+Z77YEucllsldZn4X/Ud+5EdynfMn/+Sf7D77sz+7+9f/+l/ntu/f+lt/K89HnUPdQ90SdxzPOrYh2vFxIemsHReUEdLOvgTnCp6MpXwQ7P6f//N/cpuDff7pn/7p3aMe9ai8jexHHtfmvEE5QpxXeI8yRjuEZYB2LVj2d33Xd+VyST3CBRbykce+WQ/t4F2RA+ccLOc7zkO/f+/c407gB37gB+ZH5ngkjsAmChL4EX0KyR/5I38kP27JyYfGsoGPQMVFWaBsRMVD+eFzm+BkxxVNGi+czOhz8tq1z7KeRxEQh2jIcnL6xE/8xHySiUfAwGNOD3/4w7uP/MiPzFeBaYjw+C1o5FJW/vyf//P5dfmZaJ1NcUcANGwoH3FFnnLw7u/+7rnhQt1Bg4MGKuPe7/3eL08D6ovy9cMe9rBV446GMQ0/GjCBuqc8f+n8inMIZYxyxKP/f+yP/bHuEY94RPfQhz40fzQoPn5GIznKns6OMigK3Oxhf66P5/FqLsjxiHXpX/2rf5Uv4nMRhYt0nJe488j5B7RVqHfe7d3eLZcR7iYTNFGGCKJIA/UTw3SIeu08oB6N7Tpr1ssHF1LjOI+n2Wif8hEgOtobnDMIhNmnMS/LibvunD+Ieag7oo3Dxf5HPvKR3VOe8pR8h/mv//W/nseDG0PMQ7mMCxG7YHWWjWbgrgTNiM8h8lkgCgqfTQw8CsdVN05IT3jCE3Lh4GR1Hj7foenKiydUWHEHkkqGSoSLLFTINGoIqqmcuDJHA3o96NLZEw2J2O/s7/CsZz0r72+u3IMrwT/6oz+a7wrxuXem59EpTlxc3eWzzwRFXMTDeqNIZxONmLgKzwUz9ivlhDogniqgEUwXF0vKz0MzfTxKSL889/zmb/5mfk19E6Ke0fkXd5JBu4TywFMt9Pn8K4/vBi6u0EW5iqBJty/2KRfJaD+ANgbHOkHtx37sx+ZjnUdn+Zgh548IhLgLSN3CtJxneKqF4JB5+Kwr7dhv+ZZvWQWL8eW4XORlnVGfUHdRXmir0EZm2ayjrLvOA/KRfAJ96s/yXH67Yj+Q9rKtQED84R/+4fk7driIwhMJ/+///b/8HhfmKQeIfc78YB9HOWNf07YlQCYoBo9uM56PrLJ8HtvmRgAoR5zboo/Iz/Ps+DPOSOfc+IzzLjTtudJGAXniE5+YH1uhMBAs41u/9VtzxcWXJ1Co+OwiV1QMehSoZDmZxImEyoOKLB6He6/3eq9cYZXlhrJU3iXS2RQBCicJ9jt3DqNByhMqH/VRH5U/6wwupPzcz/1cPqE96UlPyu/zxS6gXuEOABfnaAwTQHH1X2dbPEYdd4Dp0/igXmA4xlMXcNE27iRTjgIXVfjMIp9n5DF+7lRz14DywecRaQCtN1KoZ3ah4bLronxRRrgBwF1FLvzzeC1f6sR3t/zKr/xKnoayRdljHhrL5cUW3Z5i/5bYb+zLpz/96fnLnzgH8Zg1AfQXfdEX5bvJlAcCP9ohfD8C55dnP/vZeX4e3WaYQHu9fqKNQtDNBVzE55wD64p5yvFnGfUkHccE20c77qzUnZSFuPgRxzPnEuIVjn/iGL5ckqcMeEw7vjiOfce+Rex7lPt0/YlaLqKQLx/wAR/Q/Zk/82fyDYB/8A/+Qb65CJZD/kUbl6D+vBtybpn/9T/m3DcIzzuu8nOHh5MOO547QYgrKVRCPJ7wYR/2YflqP9NRMDkBSXHnmBNOBMpUvJxcIqgiCPq1X/u11df7x2OX8UV0OrviYklctWX/R8OUiyN/9s/+2XzXh+k4wfFzQvEI/x/9o3801y+gjBBwP/WpT82vy+9S0NlFY4aLZjRCKBfs52iUUUbiTgEXVdj/ZWODxi8Iknn0knMQd4s+//M/v/uCL/iCHBxRnmggl40czmPUSdHA1fkVjVTKWHwGkSdbuJhCueAzh7xev7tMGYmGs25fZf3A/uRuYQQ3tEH5PDtf8PRlX/Zl+bFqLsT+nb/zd/LHgOLOHx89ZNqP+7iPy69BwM1HFPkmZOqJKDvcbWZ83I0E73NjgHqLcxjntbhredZxXo5zeNSbdAyfhW0s7zRzvoinkWhjEDzTBiV45uYNXwrHo/p8rwb7k3iGfRltF8pYzM84puECbrRbucFIOeKL6Dgn8RlqnmRgeZQR8rG8GHcW7ti3Ub8SHpc3StPwEB7nwHk5W3SLeQqdU7d/YdYtj/oMPc844fBtg+///u+/+hA8P03FF/dwVeUP/aE/lL+dDnwlf1QwBEo+ri0qnnU0Yql0o1HDMOPe533eJ7/m6i8VEyc6nW3RiKE+CNQpnHjBHWd+EoYvX+HLOT76oz969egTDRzKCI0XvhmVO9F8MQu4G62zr6wfqAd4miDuEPBeNNq4C8QV/XhMn3IRd51pqHB1n0fkeOyOxg8fKyJ45qdkmJdHNxENl7hop/Mt9jNPKxDY8GgmX9zDR0C4o8gTLnx3S3mhv3yaQbc3gl/2cVyUJxiJdkVcWKNNykVY7ibyqDUXS7i4RjDDRRMCYR7b54lK2rM8qULgzHnqhS98Yb6oEucrPg7CEy1lGaHe4vxGvcW6CdbKgO0so11G/pKvcUGTbSU/zkIdGucQguB4aom4pLxQxgUy6gQeteZjHLQ7KBe0QyhTfLEcmD+CZC7gkh+UhShvTMsFfcoDy+RiLj+ZyEUaLtxQnmjrxOekOS+deUu2nWMjuj4v+r8ROKd/i9lw15luB06+VAYcKBS+OHB4FIGCw5W6T/3UT81f2AKCHQpRNHbiip5UQxmjsuEKHmjEUDFH0KXzi29K5rE3vmCQK788ih0nFOqTP/Wn/lT3spe9LH/zJUF2BFU8CbMLjzrtumiwcqeHxht3kMG5KO4i06ChEce5JxoxnIMYR6OYOwXRWAlMF8vW+RVlhDIQdwbB+WbTRV2dLVxM49iOLo5pPrPK3WV+ig58IRwIfGhXcMeRi2hcaKPP7zzz6C5f6PRX/+pfzf0v/MIvzD9XxF3DwJ1Epqc86WygDqBNGXUBgTM/C/VDP/RD+TXBLwimCXi5+8xNG/Y15xB+6YWLLYhfE+JuMm2WuHkIzjmUDYL0wCP/BNB8zIyyyHksLrrE93WceTkM5rxbdkkav9NnWK6eUVFwZR/8ADwFgs8hxjfc8ugKDV0atvEYiw0TnQYNGio2KpV4TYUVF2B0ftF45S4ynwPiiRW+kRLsewKiZzzjGflONFeC4zNoPMLPezZ8zz/OPXHBlrsFXDChccI4zi9xsZbzUzRmKTu8z3juMNEYiossEVjD89PuoJFKsEx5oSxEAK2zjWObeoE+xzb7F5xLCFQ+8zM/s/vqr/7q/Bjud3zHd+TPsxIY8REh6ggCIL5h/QUveEEOlLkRxGddP/dzPzcH0NQpP/iDP5jvRoKgm7JDPaTbH+1IxBMAnBu4CM9TsnwR3Itf/OL8jep8JIwvKaVNwdMJEWjzFBP7mnLEbzbz2DV3j5mPR7Npk8R5hHVQDuNJB9bNBRviJMom9Q51UFz8p5173u30GZY7QB/yIR+SdziFgTvQn/VZn5ULEoUHFAoKCR0VUjR2pBrKEyc+gice06RRzLhdqFTUe9rTnpbvNNPF59u5u0hw/MxnPjM/0cLFurjay0mIE5R2Aw0TrupTPrhaz/6njqCu4LxD2aCxw7g490TjhPl4BJNHtZme8XFuMnDeHTz9RjngUUn2P+eXCLJ0dhHEctxTJ7CP4yk1fs6Qx7GpH/iMM993wG8w82WBnG8oBzzh9JjHPCZfnI2P/lC/cL6hT7v3+c9/fj7XcGcbBFbMEx9J1O2NC2bckIljnWCYJ9f4ria+TJKLI5/zOZ+T+3x8g5+n4yepQJn6a3/tr3XPe97z8gVYvujrS7/0S3OAzcUXnmiINgl4tJtzEeWFu9qUPbA81sV6mT5uCO3Cl5vO7kpH5+zgard/Yd7tdbMUSc+7xeGim+/3J+jziqsndFQ40XCh8UEjhCssUWmBqzE0Rgiyd+kxWxr5bC8HRDwOQp/PyfDZCbVx5ZcrgHwOpMzH847vC+BxMT5Tw4mfEzQVLxX9LjTsqUfYVh6dojFCg4ZHpmigcHUWfOspARAXVzjW6OLK7i58HIRGPle9eXSMOyc8VhhX0HcFxwffiEyjl3JCGSEAYv//8A//cL5rRPBM2eCcRP1Bo5rpKFs0jqmjyTfGlZ9pPcuirqSBGD+9xLbyaCGPqesYj2ZSh/AYJnUO3S4cR9E+AXUJ9Srlhp/+o0HP48jx8bt4iucsHSPl9m3Co7M8us10fCzo0Y9+dB7PE5RsO3VKfAcCHwWhngWPflNGuHNNuWE8yyAQ5y5iPOJ73lEWqHO5WcYd+1BeoLxdkUbOB3FDpnxKjfeoNwmKCXSJbR71qEedmCa88pWvzN/xRH3BfFxc4fs2yrYqT8XxRac8zcD6GE+5JI847njkm7qHj6exjFqZPSsW8Wnl/BHmVKemv7P0b28572YHxMk7ioYJFQRX8AhqOIhApULDJIJmcEWXH5inQFDBxCML0jZxZ5kv96F8gcopxut8o/7gBEPjhS//Yt/zRAuNu7jKz+NQNFx4bI7GHUFznAi1G3iyicf4405PXLwF36ZN0AzOO5SLuOhEMMk3sfP0Ao1g0Nix7OwezjHlF056jjkfONbLfckw9UCcPwiKaZfyfRnUI9GG5Q4h36wcQTNtWoKnQH3Be1zMjWCatu2znvWs3CaO+kS3L84T0aagHx8HBOWE8sC5g/YFgTBBM/uVcwSiDPHlyDz9RlDMF5jGl1RG0AzuQnNXmTLE+igr8Xln2jNc0OSONOng3LUL9c/OP9MVDZEoSBQMunVxdYUrKtGwkbaJiiwaxJzUKGuc+Cw/518ZAIG6g5MR9Qf1SzzuBMpGNGwigNb5F2WAR9soF6DcxAVaGiVRhrgQEw3aOD9FwzgazLEMnX+Uj0CDFVzQp7yUjV6dTREg0+diGMc29QF1A3XEG97whlXdwPHPdATI9HmfC2qcc1gGd9jjCaYImhF3IPm1DzAd70d9otsXAXDU95SL8sJI2baIuoF9SrDLRXrapmUbg6cRePKJZVJmNv1qEOUJvE/5iqeAUN5kJC27YGcDZ+4qlw3beHynPOlQSHjkIa7SUCiYLioeaZuoQOLkFJUL5ScqM51vnKho9PA4cjRGOGlRxxD8RL1SlonydzR1vpVPLtHoBRfXKBs0kGnsRr0Rw5Qn+jyGF8qGErzrfP5Rh7CfaaNEPUKjmPE0bHX28VlkAiKOd+qKuHDGPuYJA84ZnE+oM7j4xt1jgh7arOA9yke0RTgPxZd/saxo8xJcx7IpQzFety/KAPuW/UY9wD5n3zMcF03KC6m0QylPxC7EPUxHsMx5h3LDHWqWSVkr9z9xEsuKO8yUqTJu4j2QDpbFMnYheD4ROPM0N5ky34GKl8YJFU9cSYlguNzpDHNlhcIgXY+4AkgDGBFAxxMOOv9o3HAi4qmDeFw/+oyPeiXqIDzykY8chnTelV+iEk+mUD+UdUQZBNGgodzQxU+bIR63ZFy8r/Mt9jNtlCgLfM5V50O0GwJfNBr1QtlGjcdnAwFQ3A2kTVvWE9Qx8R7LijYKn42OZXOBrqx/dPtiv7OvqAfYr5QRhiN4Lc8d5TkhpqOsRHskEBOV8Q7rYFnxuXfONeWNnyiLpGN9WeeZR4gkSZIkSRUGzpIkSZIkVRg4S5IkSZJUYeAsSZIkSVKFgbMkSZIkSRUGzpIkSZIkVcz5kvJrfrzCX7OQJEmSJO2AJV2KgelAb57+8m/Jq/R/FTjTMcMiDdCXJEmSJGkX5OA5dbP0Z76c526WuoiNc+C8moreEDjHBJIkSZIknWfL4V/Ex7O4/Yw06GecJUmSJEmquDZw9lazJEmSJEkr8/U4mRvS0UmSJEmStOtO3HE2WJYkSZIk6aQcOJd3mA2eJUmSJEk65h1nSZIkSZIqNn45mAG0JEmSJEm9awJng2ZJkiRJko5de8dZkiRJkiSt5J+j8qebJUmSJEnazDvOkiRJkiRV9IGzH2yWJEmSJGkj7zhLkiRJklTRB87Fh5z9vLMkSZIkaZfM0r958Sj2ctZHxnlMGpxf85R2GsEky+Wy2pUODg66t7/97d3Vq1fz6ytXruT+zbQpTWV3u9uU5rK72RaLRbVjH77rXe/K077pTW/K+/iNb3xjN5vN8nuHh4d5HB37nXGXL1/u7r777txt2qaymyrWTTqOjo5ymq9n2cy3Pu/thHRF2jaljzyf0p0G6ySP2a90DEc6Il217sKFC6t1RVlimximX5YhuthelONjX8X+ii6mDYxjfaT1eq3nb7meMd06lk/6OU44Ptatv89wmQfr23pa2+Yr85Jptm0/08W0JaZfn6fUep9tpHzcdddd3b3uda+8jv39/dw/bfm8lSJ/tnWx/WM7SZJ0zyIm3kun4NU3Z89SG2roIl7Od5yvCZ5PoWxI0+C58847u4sXL+b3Ll26lPs1NBBrXTTwt3UEcLXuzW9+c7Uj0H/HO96RG2405NkelhsNxQgAx3YtsZ5tXTRmb1Zjaj6fVzv2YezP+93vfrmR+5CHPKR72MMe1j3wgQ/M+5xxdEzH9HfccUcuB3Sb9knZkdfRwKTPa/Y7ZYrXm/Kk7GLdpGNvby+nOZYN9mdZllgu80XDlvnW572R1vfd9XakJ9K1KX3k+ZTuNFgnecx+pWM40kGaah3lt0wz80af8kG+l2WILvZFiG2ni+npR1dOC8axbaSV9de6dev5G+sd261j+aSf44TtX7f+fuQNfbpNyzyN9e0KkX/RX58u8jjWz3Apjq/ol8cYXev9yAP2V+x/sK7TlE/2YRzL0TGOYwfr7613LZvmKbvIn22dJEk6e7jBPNxkzlKrPP+d0ee9u1NLY54aNXsXaDzRYEiB8F5qxAwNkG2igV82umgg4TSBs+oIvsnX6CKfowFNI7Qmptum9T6NQy4o3P/+98/7Nfbp+73f+3Uf/uEf3r30pS/Nr0OUhxiOMrENjVwamDFdNHrL8lRD+sC00V0P8i/mKZdxvcu5WQg4sCmN4MLPFPe+972Hoc2i/JX7g/0T+6kVHLzwhS/svuEbvqF71atelcvQO9/5zu4+97nPqoy89a1vPbFNZYcoQ6yfjvXFMCibsayYL4KWmK+G/Ivp6RBBEdt43/veN48b621ve9sqvXSxXZF/BI+198s6NN4rxbZvQwDKsugQ+cJrtjGWSb/sAoEu6Yr5EPlDtyn4H+O3f/u3uw/4gA/oXvSiF3Wf/umfPow9Pr63iX02Vi3/ynwYq7V/Wm5EGs4yyh8XUHjKiQu2eMYzntG94hWv6H7rt34rv9ZuK9slnM+5+Ea5+dEf/dHuOc95TvcLv/ALuW7hXBb1FecNnnCRKAsPetCDus/6rM/qvv7rv34Y2597pp5fdMat7q2k8/gstaNyFJ3alcvUrjxIbaWxgTMNv+jHHQnu4NIw445kCyfEGhptNTTGa1772tcOQ5u927u9W27c0EUDky7GsU1TECTUkFc1UxvubEtNq2HGfuWEw91m8oPpef3IRz6ye8xjHtP9yI/8SJ4u8mt9OO4gbcPyykZ5zLf+uqa1DbfSadJfcztv22l82Zd9Wfct3/It3W/8xm/khgrlkWPai2unE/m1jpM677WOr5vpRjQs4rzx67/+691jH/vYHDh/zud8ztbtPg2OOean30of0wWOtTjeTnvcTT2+W8768T+VgbNaDJw1hYGztrpZgXN5Yo9GkM43TkCPe9zjuvd5n/fpfuzHfmwYe2tQuZWN3Rvd0Iw7vmNNbVhHgBnbVnY3QuvEQEOEaTiuI5Ah2OBYJ+9bx/sXfMEX5KcSCJx5vJ/85BFqPi9PA4duffnXg49YRH6wnOgCJ8WaqLNoeJXzMZ5uaj6zTLZr27axjtr75BfLKANk8p/9wrytx5kpf+wn+qwj8pllxH6MbYx8jA7bAnOWyby8X86/jnXU3g8EQXHH+TM+4zOGsX35q2GZ6/nHtsb2tWzbvhDH3zatCz9Tj/9anu0CA2e1GDhrCgNnbXWzA2cewXzd617XPeABD8h3WWkco3VHudW4aRXcBz/4wcPQOKQZ0fiKju2iazWsWqisa1oNL04AkRa6Mm10rYZl6+RA5VDD/qHxziO9TMv6ybNnP/vZ3aMf/ejuu7/7u4cppWt93dd9Xfcd3/Ed3S/90i/l8iptQp3ygR/4gTlwft7znjeMPfsMnKcxcFaLgbOmMHDWVjcrcI47Ft///d/fveQlL8mfZXzDG97QveUtb8nvx8lum9ajzK3ArhU4vvu7v/swtBkn5QhCNwXOrfW3vPd7v/cwtFlr+e/7vu87DPVIU2n99bq4gLFNq2HHHaq464XIry//8i/vPuIjPiKfmMByyi7GtS6MxBeMsXyWyzz0GRfja+KOG/OUXYyjfMbwpvfZ1zG86f3WhY0WPgowBY/IY1v6Wp9RbmndUW+Vn8jfbb75m7+5+6Zv+qb8SD95zRfycef59a9/ffce7/Ee3UMf+tBhys24IAe2tTwuIw+ioRTlYF3rjmGU521a87dMLT9sP8vYdAGvlffg+OOYIu/GXAQsL9yh7LPc1vEV9fO29ykPlPFXv/rV3Qd90AflwPkv/+W/nLebeVsf9+Ez8tQTm/KIbY91bcN6Ik3kEfVNWc4Yrmmdf0jbFK30n3cGzmoxcNYUBs7a6mbfcf75n//57ju/8zvzZ3bj7iSVVDR8t4kAe5tWw7XVcGl9hjjuCNPIKjsahXRUwFPwSGoN66jhy4XCpmlbDTu2ZQr2YXnXnM9cEwzy6C1PF/BepCvyLDq0Kh72H9tAA5OyxHz0I3Aut/+0okzSL7ef19HF60hn+V75/tT8O01wUxPr35a+GL5Z4pup2Y64yMM+Zd+w31qND6b5/d///e4pT3lKbvz+7u/+bm4AM/yIRzyi+53f+Z3c0KHhQxflhXWx3vVt3LS9zEc6SCvro0xRb3Dsti7MrQc2rL/cvmiQjcWFAZYTXaSfbaPska+190kL28V2cCzymu3juGP7WumL5TEfAQj5xDysC1F/Ml3ZxTimIx1xnPA68oj3I//KeaPDtuXH++/1Xu+V6xG+HOzJT35y91Vf9VW5AcN5gX3Io/gtlB/yiO2K9JB/dKSzJvKcjml5HR3j6NfEdmzDtk3RWv55Z+CsFgNnTWHgrK3GBs67fdo++6LBO1Y03FgOJ6W4s0cA/ef+3J/LX/xU07qjSaUVDfMIlqJjXKxvmwjmYp5yGczfuvBCQzumJ4iJLsZxAq6JijW2IboYF4H/pvcQDf1t75N/pIe8Jy2xvdG4D+X85TLIP7aD+VgGHcuLfKJfBgjME9tOx/5hGTQ4Yl+Qjgjc2D7mJx/o2B66SN9P/MRP5C9++uIv/uLcoCGIps8dxvd8z/fMjd9ISyyHfqy/hXlJM3262H8xvoULazS6CLxYN/NSZsgnljEVd1RvJfIg8iGGy3FlGdomygd9MC/7hn6U37EoU1xopRFLmWB5H/zBH9y9/OUvz42ZCJxj3et99lNN6/0o0+W2RVlCa/soL2D+sotxrfXfbBxrcSyyz0hveay1nlhh+2N7UG4fWhemWlpPhPFkysMf/vDcZ11caCEgov75i3/xLzYvrLD9Nexv8oa8YFrKA/2ow1r1f5SfbVpP3LXwUbTIc7o4DsuuhunZFrYpygKifo3lhfVlMg95RAeWxTbTMUy+TcH+j3qb9IBlRv5z/iM9ZTpJC9PGsUpaqD8ijXxhLOelX/mVX8lfTvm1X/u13Ud91EflMhTbTR3PvmE4trlcT/k68Lrso7X/o34Yi/ojyuMY5EmZXl2Li/dPfepTu+c+97n5wm3sc8pGuf93EccXZSjKEcfmeS1P1DUcz+zz1XFj4LybKABTxEHCcqjE40QRgfO3f/u359fbUOlfjzix0aE1f6SvnC860ny9jzJHoznmb50YpzYcTou0kKYQFfr1VmKcyOliG1vf2h6PwpIPsS8oBzQoWQ75G2mLrqxsv/VbvzVfXPnJn/zJ/NgtT2Cwzt/7vd/LgTMNnkgL2xIVc7mcmvKOa8wTy2Pe1v6nsmQZZT4yH9vIMsY2WMLUhhMB/RQEFpGH9MsOp/k5M8oaXeQR85I3dFN/Do0LJ5QrGrpf+qVf2n3Kp3xK9zEf8zHdK1/5ytXd+hBpDrxuBTat44P1so5oqLNN7DP2f5SlmiijZZ7QxbjWE1ctrfLTqn8IMGP/xbbRJ18Yx53+mvX8ZZtKcWFwrFb+kM74aAd1BcHzD/zAD+T3Pu7jPi7fTaxZT++6OD7oYr+V+6+Vv3EHc5vWheOW8ok58iLK83p/mzh/xbyxfbGN6+lnXCnyIaaP5VB26E8t3xx35Tpj2XEeoPyV64u0RHrio0wsh2MWnGdIV3x/DU828ZG3X/u1X1uVZ46LCLADy6eLYazvvzKtiPPP+rwxPBX1fyyvXCbpWE/LJmwj85F/dCHmb9WflI+Ylq5cFsPX275bx4Wwmlb9x36NNEX+kM4oH60bJ5QV5uPiyhOf+MTuYz/2Y3OZoONpoVb5jo/ixfrLvKGL8jkWFw2xbfmtXw3i43DgeOIYieON/U7Xav+RP5GXYN2xLPqt83+UmfUO9K+3fb6OcwJpoRzSZ5mck+P8HenlfYbX/eqv/mr+aV2OY/KD9DIf23zp0h3dhb1o/6XtN3DeHVHgx4pCznIojOuBM4/n18T8Z03k21lN/+2CLwf7tm/7tu4Xf/EXrwlyN1Vk2k0E0HwpGD9F9Umf9Em5rpnaKLvVqENaDdOW1vzlMbUJDcAIQjjmInDm2KNrfcdAiMZT9KObemGn1fBj+0kj35tCI4uG7Ate8II837/4F/8iB9U1rYYvTzVM0fooGE/sTFGef6Mfw2jVoTziHvudYyr2fyyHsgGGGb++f+OJgnhNo5JlxHKm7n+O+yiLUU5DrJNxZT6w3mjckv+RFoJhsE/Z7zSKv/d7v7f7oi/6ohxg8eQTdQrliICYoLB8YiHWF8PRjy7yJvohhmO6GMbUJ44iAOA4YDsZZtnkF3lCsFBD4Mj0pDnSHfkZeVrD/OvTlsua6pd/+ZeHoc1agedrXvOanLbID8T20m99xwzT8dOqP/dzP5fr0g/90A/N5YTt5vuJuGBXExdnsCk/Wf4Um5ZZaj2xw0ee4lgp84lxdK3jN46pbVo3lgLrXO8Q9c9YpD8CY/rsc46TqOuof9nmCPQZDkz71V/91flpA77omDwiT8DwxYuXuhwnZ2nAwHl3UDimiALOcjYFzt/1Xd+VX2/TuuIXjWOWT0eBjWG0Dizmj+k3dZH+bVoHPsuoaS0/DsT1dMW49e1ff5+OPODAj4OecXESJf3r00eH9WCVeehHPnPFbpOYJk685TKj4ottL/vr43hU7sUvfnG+2s/VT+5gcyX3D/7gD1ZXM+lIF9vHtjJvjGvZtP9i3aDM1mzb/tA6cbSUaRmjdfy0Gk6h3IflvmwFXkwXJ9sof+wbxse+m4LyTxp+6qd+qnva057WfcmXfEn+4kHKCQ3bVvpaYju3mbp/dM+ivH3iJ35irj9+/Md/fBi7W+L4Q9kQ3GSXyzefg+dzqy984Qu7xz/+8fmcedr68nbGvj/t/g+UGbaf+SgTEUS0ygcBO9OV5+UITDg/tz4q0RJ3RG+W1vcgsA1sF23Zj//4j+8+7dM+LV+MYTtpp7TOv4961KNyP/ZJHJuxf1oX1lp4Qi+Wt6njyb0anrZgH9JFGyvKDGlt3TGmfcR6yu2iC60LnzEffdYfXYynHp+CC2CUR7aPMsky2b4IlBkX2xxlPdJD94QnPCF//05cgOW9KOdpsNubxfGVXhg47w4KwhRlYdsUON/IO86sI9Ib/TjItynTtz4v/daJMqa9nnTeDkg3FdCYhgDzxna38reFSou8KyumElf0vvEbvzFfxaXMUNFxlZATClf+p65f00Q52OZmHxdRHngi4UlPelK+0PKFX/iFq0eMTxPY13CM1HDCZR2cZEucOHmvZb3+KTtMfRStpbV9rfqh9eWcPOoZ2xMNnugY17ow1UL9UcMdT/KQBjp97vDw5WDcCeJx/taFrfX9uo6GIfuwrMOiT9dqeLce1Y5yMFbrjnoLTxyw38hnOtLDdkXgVD5xwHvs19jPvI4nFqKLaVgW0039DHdcOC5x3BGwsA4urpZiWyh3pIO6gz5p4z22iTYK5eRnf/Znu0/91E/tXvayl3Uf/dEfnZfJtvM+d6Tpc3ywTdHFdkfXurBaYnrSUObf9cy/i1qBZetR4tjn7NcSeR/l4jR4JPoTPuETun/0j/7RMOZ0opzE+so+3Xq6rlerfrnZYjtimG2Ljtet8/Np8/9WIfCPizexXaS5D8iPuvveO77DI+WBgfPuiEI/Vhz4LGdT4Mxv9NbcUwfOtu1sbX80/GI7y4ruNJUe08Q66JcdNj0KU75Ppb+u9j7jo9FCV+6f6Jfzl1/eE+NKVBAsI9bDNGXlWDaceY04UZ0mf77iK74if1MlX/wUnxkiTTSOKEvkfzQ0WB7lhT6vGd9qeJB+lGkph1sNe/Iyrk6yjZG3DEd6pojjZazI821agUM86hb7kC5eY1P5LLF88oF9HmWENNGxjKkndpbB8glQ+AKfr/zKr+ye//znr/ZLiLTHeqObekeagIx9tN6AZz2UnbIs1TBd5FMMo7X/WiLPt2kF9+RhuQzylTRFWseWb/IesZ33JD6HyJcM/q//9b+GMTdObFf0W/l/q0U6t7kV++eeRh6sbycXhPhejc/+7M/uvu/7vq/7sA/7sDye4DnOO1Pr5nsCFy5IJ/V0uY2coziWW/Uf9TfHe1lvspzoWE5NnI/LdZfLm1r/ts4/U7XuaPKoM9vCdhI483RcbBN5F+2Lbab+3GgL+xjkdbkPo2ud/+PCVrSx2M57sk6L9iWiHJXlaWr7Ki7scf6mT56QZxzf9NfXx/vkReQHFw6Zj9c81k17k9e8l/NpdfpO9ayB8+6goExRFrjyZBOB80tf+tL8epsx6491ojU/BbycPsS4qQfm7YS8KPODbdy07TdSGTxEP9JAfz3giDRGx2Ny//Af/sMcOBMwc4WZssN7p0l7KzA4C42f2w15H/3WPmi9Hyf2sUgDZYjHKvlyFi60fN7nfV5+RI3PKm5af6QfUx9lp+ERJ16mZX3UKXFindowvN3EttEooGt9BnfT8V2aWr+25uczopQDHknkrhD1x9Of/vT8pWa/+Zu/2XxUtLxwuMm2C5vRb+XP1OOnpbww1ToWNuEjD8zHvo75mYdyQL9cfrmsGKb+jWH6UW5iea3jq4Xji+WWjdnSpgtzTE+6qHt4n3NUjOd8QNr4TDyBM9+bwOec+cJBxvEeF4OpN+K4j3xZ7yOWHSIvwqbzD9NEd57aHzdDq/5u5d/U8he4qM8F2xe96EWrskEZa124p8xGmVjvoxwe42aff0h/TRzn6zhO6Vr7Z9O8t5M4f7DPORfE/mbb2HYD5x019cCNgs9yNgXOrc84t0T6btYBtn4i3oZ0rHdoBWbr6S7npb+pYimnyQfnmvX32YZoVLA+lllbbjk//Ugj/bIDgQPriGXG+BDrXB8f69iU/hInoq/5mq/pXvWqV+UywyN0XOXlzjPrKyuq9fXENtSspwuRttOg8UU62A7m4TV5zXIZN/XE3Mqfqa7nwkKZL9HfVI5KXDFmG+gir5mX/UV3o+4Y8Cg/d4V4VPvzP//zV5+Fv9mo09i2bfnQujAQ+YhNZXHq/i+Xv0lr+etpiv3G+Na+P41W+lo25dkm3Fkg4AHfpk190vpiodOIwCjK99T9daNFw/ZGp439RtlevzByVkW9HYEGFzx+5md+pnv2s5/dfc/3fE9+vJ+6rKyvaDQTeJO328phlO/TltMbLY7XOP+DtHDs0m+dn+I8GxcGQyyvNT/riDTQUQbLeVr1Y8vU82tLHD/bRB3IndnP/MzPzG2V2E4wXHOz64tW+lvlkvqNMkwX5YB5eM223YhzwGmxTrYnyh6vWxcmToPlUQ5ZJtvGNsZ20b5lHPup3O5y/fE66kI+9818+YvXYvengDnN2S2HwHmWAufZYVpu/67OGwrLlA5cjYnh0LpSeFrlem4GDpjTdBxoVOIcPAQbnIDpIn3bunWMK5e5STnNJuvv0yddpIe0tZYb2xLbE8OM5/0y3TQcWC7vl+PD+vQh1tVCA6b8HBMVFfPyecWy0ty0Hl63uk0Yz/JO00V+xjy8Jk9oYDG8Pv31djcbaax1pTJf2OZt5agU+RDlh45hxt2ooJmTO4+U83glwREnwXsiaEZ5kt0kjp1tHfNHt+n9siyM6SLPt3VxHGzr1rFM0sW8N8KmdV5P1xIXhiLABY2aqT+DFmLfkR/kze0m9vONTht5z3afB7RFKNOcx6Kc8JrAmGA5fvKIhnLgvBTfsVErh6ctpzdLHK9sG+elODdFfdPCExfMsz4tZYplxPZt6xBpiPNAiddTupstjp9tHSgLXGCIp0viWCMgY7jW3Wyb0lx2m9JUdpQbygtlgP0X+5Q+89+TWCf7PMryjQiawXbEMtnWcrtiHNtOeY92C+vm+I98KOtC2iLxbeXcWM4d+Za6ZQqa6Rimd/NLgCRJkiRJZwSX3dafrzJwliRJkiSpwsBZkiRJkqQKA2dJkiRJkioMnCVJkiRJqjBwliRJkiSpwsBZkiRJkqQKA2dJkiRJkioMnCVJkiRJqjBwliRJkiSpwsBZkiRJkqQKA2dJkiRJkioMnCVJkiRJqjBwliRJkiSp4kTgvBw6SZIkSZJ20WzoSjlwXg+YDaAlSZIkSbtilgLg3DGcOgJlugigr73jvB5aS5IkSZK0CzbdQU7jTgTOkiRJkiTpJANnSZIkSZIqDJwlSZIkSaowcJYkSZIkqcLAWZIkSZKkCgNnSZIkSZIqDJwlSZIkSbst/zYzXfqTuvjXvzZwliRJkiSpysBZkiRJkqQKA2dJkiRJkioMnCVJkiRJqjBwliRJkiSpwsBZkiRJkqSKE4HzjI6v4JYkSZIkaWfl6LjrlvRT4Jzj5H443lp1kiRJkiTtliEiHoJmrO44xyjuOBs0S5IkSZJ2B7eU4/HrCJo3BM6SJEmSJOlaBs6SJEmSJFUYOEuSJEmSVGHgLEmSJElShYGzJEmSJEkVBs6SJEmSJFUYOEuSJEmSdttsdqKb5Y7xfWfgLEmSJElShYGzJEmSJEkVBs6SJEmSJFUYOEuSJEmSVGHgLEmSJElShYGzJEmSJEkVBs6SJEmSpN1W/PRUb9n3/DkqSZIkSZK6bpHi5FWX/h3lLv1dphHpv4GzJEmSJEmY9feal8PfbkZn4CxJkiRJUpWBsyRJkiRJFQbOkiRJkiRVGDhLkiRJklRh4CxJkiRJUoWBsyRJkiRJFQbOkiRJkiRVGDhLkiRJklRh4CxJkiRJUoWBsyRJkiRJFQbOkiRJkiRVGDhLkiRJklRh4CxJkiRJUsV8mf7QYTb0JUmSJEnaXUTH0aXAeZH+EDjP0h86SZIkSZJ2To6Rc3Q8dPP0MvXTqP6OcxqOaXJfkiRJkqRdke8i0wUi4+Po2M84S5IkSZJUYeAsSZIkSVKFgbMkSZIkSRUGzpIkSZIkVRg4S5IkSZJUYeAsSZIkSVKFgbMkSZIkSRUGzpIkSZIkVRg4S5IkSZJUYeAsSZIkSVKFgbMkSZIkSRUGzpIkSZIkVRg4S5IkSZJUMZ+lP7Numf4xwCtJkiRJknbIso+MjxEh5yg5y4Hz/l76y9Bs3i2X6c3lon9XkiRJkqRzjnvIxMaz/C+Gl/295XnccSZY7kenviRJkiRJuyzuOPd3nf2MsyRJkiRJFQbOkiRJkiRVGDhLkiRJklRh4CxJkiRJUoWBsyRJkiRJFQbOkiRJkiRV5MD56Ogo/34z3Sz/gJU/SyVJkiRJErzjLEmSJElShYGzJEmSJEkVBs6SJEmSJFUYOEuSJEmSVGHgLEmSJElShYGzJEmSJEkV8/6Hp/jbDy2HviRJkiRJu4RomLvL8zTEv4iTc+C8P7/Q7c3m6cWsWyy77miR35MkSZIk6fxLcfCMOPiIgDgFygwvU3yc3+yD6T6STu/3+ohakiRJkqTdQECcuqHXR8mzVZjsZ5wlSZIkSaowcJYkSZIkqcLAWZIkSZKkDeKDzAbOkiRJkiRtMBs+82zgLEmSJEkSuMU83GYuvzbbwFmSJEmSpHXxldpJDpyPjo66xSKNT2/MZrNunn/dWZIkSZKk8y/HyJUw2DvOkiRJkqTdloLm4gbzSo6l/YyzJEmSJElrIooe+gbOkiRJkiSF4tZzPL1t4CxJkiRJ2lnEyUWsvJGBsyRJkiRp520NntMbBs6SJEmSJFUMgfOymxFGp//0/TEqSZIkSdIuWcXBDAwv4i70vB9YpDf64HnOjznTSZIkSZJ0zuU4OcfAqUtxMd1iNusO5113xK3mNEG+47zkzSGWzoGzJEmSJEk7or/JPMTF6cWSrn91HDhLkiRJkqTNDJwlSZIkSaowcJYkSZIkqcLAWZIkSZKkCgNnSZIkSZIqDJwlSZIkSarIv+O8XC672WzWpT/92MWi70uSJEmStOO84yxJkiRJUoWBsyRJkiRJFQbOkiRJkiRVGDhLkiRJklRh4CxJkiRJUoWBsyRJkiRJFTlwni35Gar+p6gW8ZNUkiRJkiTtCH6qeaP0xpzIeTbb65YLfs95CJz39voJJEmSJEk671IcPCMWHjpuJxMr93eaV49qz1IQzQQE0wxLkiRJkrSDUkBM4FwaAmdJkiRJkrSJgbMkSZIkSRUGzpIkSZIkVRg4S5IkSZJUYeAsSZIkSVKFgbMkSZIkSRUGzpIkSZIkVRg4S5IkSZJUYeAsSZIkSVKFgbMkSZIkSRUGzpIkSZIkVRg4S5IkSZJUYeAsSZIkSVLFceA8W3bL1FtGP4+UJEmSJGlHzIZukAdTcDyPIHk5Oxq6PnCWJEmSJGkXEAUviISXfbcYxvfB8nDHOQ/PmIyOV5IkSZIk7Z4TEXEZOEuSJEmSpM0MnCVJkiRJqjBwliRJkiSpwsBZkiRJkqQKA2dJkiRJkioMnCVJkiRJqjBwliRJkiSpwsBZkiRJkqQKA2dJkiRJkioMnCVJkiRJqjBwliRJkiSpwsBZkiRJkqQKA2dJkiRJkipy4Dzrlt1sOUt9/kmSJEmStFtmy6Hf91KUnDpepK6/47w8SgP828sTL9NrSZIkSZJ2wZybyLMhSk79CJ7zQIqah0e1iaWP7zhHJ0mSJEnSThjuOJdilJ9xliRJkiSpwsBZkiRJkqQKA2dJkiRJkioMnCVJkiRJqjBwliRJkiSpwsBZkiRJkqSKef7pqdmsWy6XuetHGk9LkiRJkgQjZEmSJEmSKgycJUmSJEmqMHCWJEmSJKnCwFmSJEmSpAoDZ0mSJEmSKgycJUmSJEmqyD9H1XX85aeo+p+jkiRJkiRpp/TB8Ub5jvNsOU/TLLvlbDGEz7ySJEmSJOn8Wy5TBFx0fVw8/Fl4x1mSJEmSpI3iJrSfcZYkSZIkqcLAWZIkSZKkCgNnSZIkSZIqDJwlSZIkSaowcJYkSZIkqcLAWZIkSZKkCgNnSZIkSZIqDJwlSZIkSaowcJYkSZIkqcLAWZIkSZKkCgNnSZIkSZIqDJwlSZIkSaowcJYkSZIkqWK+TH9yN8uvO3rRSZIkSZK0OzZHwvOj9OeI0Hk2S5Okf2lwuVj070qSJEmStBMiaKbP7eVhMMl3nFfvJwwSPEuSJEmStFtSRLyKh48DYz/jLEmSJElShYGzJEmSJEkVBs6SJEmSJFUYOEuSJEmSVGHgLEmSJElShYGzJEmSJEkV8/zzU7NZt1wuO/5hNjeeliRJkiQJRsiSJEmSJFUYOEuSJEmSVGHgLEmSJElShYGzJEmSJEkVBs6SJEmSJFUYOEuSJEmSVJEDZ36Eajnjh6n64a4flCRJkiTp3FumGHiRf6t5mYeHH2rOf3EcOKdukd5g4n4iSZIkSZLON+Lfo9wtu6McQKfgOYLmITie534Olmd5XETXw/uSJEmSJJ1bEf8uckfQfG1M7GecJUmSJEk7i3vLZbeJgbMkSZIkaeetB9BlEG3gLEmSJEnaaREkrwfMwcBZkiRJkrTzyoB5PYA2cJYkSZIk7bQIlGfLoSvG8S1hBs6SJEmSpJ13IlgOw1drGzhLkiRJknYWgfI8/eVfN+s7AuUcROc/Bs6SJEmSJOVA+ZofcB4YOEuSJEmSdloOmgvDjebVeANnSZIkSZK23G2GgbMkSZIkabeVAfMQQJd3oQ2cJUmSJElaVwTTBs6SJEmSJFXM8weeh9vQ+VZ0eYtakiRJkqRzj2iY+8p0/UPay76XX+bAOf9ZLHLQvFwsu8XRYphUkiRJkqRzrgiS6QiauaccwfM1d5yH8ZIkSZIk7YQySEY8iB19P+MsSZIkSdI2KaA2cJYkSZIkaU3cbYaBsyRJkiRp561/bDk/vt0PGjhLkiRJknQiUl5j4CxJkiRJ2mnbviQ7x9F+xlmSJEmStPO23GkOOXBeLBbdbDbr5rN5t7e3183nxtOSJEmSpN2wjMe0h658yR8jZEmSJEmSKgycJUmSJEk7zc84S5IkSZLUkqPkY+VLA2dJkiRJkgIR81oQbeAsSZIkSdIGET8bOEuSJEmStI2fcZYkSZIk7bp8Zzm+ISz1l6njZQ6Y05u5z28496/Tv+Uyvc4vJUmSJEk6/1JkvEjdcq/vR9C8n99cesdZkiRJkrS74rvA6BbFMGYMLQ2cJUmSJEnKuNO86QFsA2dJkiRJ0s7b+onl9IaBsyRJkiRpZ5V3mdeD53hk28BZkiRJkrTzvOMsSZIkSdIW24Jm7zhLkiRJkjQog2eGI2j2jrMkSZIkaect+1+dij+rf4vU+XNUkiRJkiRtke86e8dZkiRJkrTrZilCpgv9fefjzsBZkiRJkqSk/JzzKnD2jrMkSZIkSYOIlgvecZYkSZIkCUPAvH7XGQbOkiRJkiRVrALnPqrecF9akiRJkqTzrrjVTKAcHaPn/JnxL8XL827RzZdH6dVRGmsALUmSJEk6//gCMDrk2Dh1+3Tp9XwxBM59jJz+RN+gWZIkSZK0I9Yj4Ph5KgJo3vQzzpIkSZIkVRg4S5IkSZJUYeAsSZIkSVKFgbMkSZIkSRUGzpIkSZIkVRg4S5IkSZJUkQPn2WzWLZfL3C0Wi25xxO84S5IkSZIk7zhLkiRJklRh4CxJkiRJUoWBsyRJkiRJFQbOkiRJkiRVGDhLkiRJklRh4CxJkiRJUsV8yd9Z/tubdd1ylv5IkiRJkqQ+cF6mf7PUMbTIQwbOkiRJkiShf1Q733GOu8594GzwLEmSJEmSn3GWJEmSJKnKwFmSJEmSpAoDZ0mSJEmSKgycJUmSJEmqMHCWJEmSJKnCwFmSJEmSpAoDZ0mSJEmSKgycJUmSJEmqMHCWJEmSJKnCwFmSJEmSpAoDZ0mSJEmSKgycJUmSJEmqMHCWJEmSJKliCJzn3ZJuNkvDdJIkSZIknX9LuhQG0z+hCI1z4Lxc7nWL2V6akG42/JMkSZIk6fxbBc8EwkM/j+PNZN4HyNxxnnnHWZIkSZK0kyJQjmB5JYXIfsZZkiRJkqQKA2dJkiRJkioMnCVJkiRJqjBwliRJkiSpwsBZkiRJkqQKA2dJkiRJkipy4Dyfz1I3Ty/m3WzWD0uSJEmSJO84S5IkSZJUZeAsSZIkSVKFgbMkSZIkSRUGzpIkSZIkVRg4S5IkSZJUYeAsSZIkSVLFfDkMlBi3abwkSZIkSbtmvkh/FrOuS/8zhg2aJUmSJEnqnbjjHMGzgbMkSZIkST0/4yxJkiRJUoWBsyRJkiRJFQbOkiRJkiRVGDhLkiRJklRh4CxJkiRJUoWBsyRJkiRJFQbOkiRJkiRVGDhLkiRJklRh4CxJkiRJUoWBsyRJkiRJFQbOkiRJkiRVGDhLkiRJklRh4CxJkiRJUsUQOC/T/9Sl/iz9pZMkSZIkaVf0sTD/Qh8j083pLZaH3XJxlAYW3WyxTMOMlSRJkiTp/MtBcwqD6bplCp6X3FRmxCKNWPSBcwqV88hyYu86S5IkSZLOu1Uc3L8sEC33fT/jLEmSJElShYGzJEmSJEkVBs6SJEmSJFUYOEuSJEmSVGHgLEmSJElShYGzJEmSJEkVBs6SJEmSpJ02m/Vd/9tUxyP4R9/AWZIkSZKkCgNnSZIkSZIqDJwlSZIkSaowcJYkSZIkqcLAWZIkSZKkCgNnSZIkSZIq5vFt28uikyRJkiRJvfkef1K0PN9LQ/N5+u9NaEmSJEnS7limmJju+I5yP4J/9Ps7zrwRGCFJkiRJkjJvL0uSJEmSVGHgLEmSJElShYGzJEmSJEkVBs6SJEmSJFUYOEuSJEmSVGHgLEmSJElSRQ6cl8tlt1gu+t+oSvb2jKclSZIkSYIRsiRJkiRJFQbOkiRJkiRVGDhLkiRJklRh4CxJkiRJUoWBsyRJkiRJFQbOkiRJkiRVGDhLkiRJknbajK7/deZeGsFLxiMHzrPZLP+Wc/4958WiOzpa5DclSZIkSTrXUoS8CpqJlFOUvEwxcgqUhxEz7zhLkiRJkhSIocubzzBwliRJkiSpwsBZkiRJkqQKA2dJkiRJkioMnCVJkiRJqjBwliRJkiSpwsBZkiRJkqSKVeC8N9/r5rN5N58bS0uSJEmSFIySJUmSJEmqMHCWJEmSJKnCwFmSJEmSpAoDZ0mSJEmSKgycJUmSJEmqMHCWJEmSJKkiB87LWR5OlkNfkiRJkqQdk0LiWer6O8xDoDybdfM+VF50R8uD9PewWywO09uLPFaSJEmSpHMtxccLomWi5mXqjuj6APowjT1KA8Wj2v2EM+86S5IkSZJ2RI6EU/Ccn8Tuw+JVxy3loxQl+xlnSZIkSZI2IJamM3CWJEmSJClEtDwgaDZwliRJkiTttHhcuwyYGealgbMkSZIkSQnB8+pu8xBA58H0hoGzJEmSJElrciANA2dJkiRJkgqz/rHt/Oj2IAfOy+Wym81m6f1ZN5/Pu729vfymJEmSJEnnXREjZ/kzz0PnHWdJkiRJkhI+y9wPpFiZbngJA2dJkiRJ0s7ibjNBc9x1JmCmWwx9GDhLkiRJknYagXH5uHYEzzlwTm8YOEuSJEmSdtsqSj4pRhk4S5IkSZJUBM7rcbSBsyRJkiRJ2BI8z/OL2SyN6LtyQkmSJEmSdkL+lrB+EP3LfkS+47yc7XVHacQidctFen3I94dJkiRJknT+LfPXavd3kentpf5eio/nBM7L+XDHOXd9JL2ank6SJEmSpHNu/Xeb+7vNdLxBAC1JkiRJkrYycJYkSZIkqcLAWZIkSZKkCgNnSZIkSZIqDJwlSZIkSaowcJYkSZIkqcLAWZIkSZKkCgNnSZIkSZIqDJwlSZIkSaowcJYkSZIkqcLAWZIkSZKkCgNnSZIkSZIqDJwlSZIkSaqYz9Kf6LDkTzlCkiRJkqRzbplj4BwRX2OeRx8tuv1unrv53jwFzUbNkiRJkqTzj5i4D5fT33wTebkKnyMyzo9q5/cYGMREkiRJkiTtgj6APg6aS37GWZIkSZKkDSKINnCWJEmSJCnb/LFlA2dJkiRJklZB89oHmWdLA2dJkiRJkvrv/uLfOgNnSZIkSdIO6wPmQfHNYP2XhfUMnCVJkiRJO28WUfIqeB5CZx7VJrKez+fdYrHoFsvUpf5yuZpSkiRJkqRz7sR952t4x1mSJEmStNu23jvu7zobOEuSJEmSdtq2e805nk5vGjhLkiRJknbeevDc32vuhwycJUmSJEk7LoXNS0Ln6EIKnf0dZ0mSJEmSNunvN8PAWZIkSZKkE46DZobm/FnQcWd6GClJkiRJ0q7IsXD5hHYyS2Pjwe0cOB90R2mi9HK2l0cvFobPu+7o6Ki766678vA73vGO3L969Wq3v7+fO6mG34a/++67c5lB/DY85Up605ve1F24cKF77Wtf293//vfv3vzmN+d65fLly6uyot118eLFXA7K+oL6hHIiUTYuXbqUhw8ODrq9PdquXW6z8B7jot1y55135nGUn3vd6155nCRtQutjMVvmbgihc6DM49n5EW2G8+jibjOdxIkoAuRovCwWi3wSmnGRRaq44447chdl5/DwMPclRB3CBRYas9EIps6h0avdRqBDGbnf/e43jOnPSfe5z32GV9p1tEeinFCPgD6vyzoFcQFXklqIg3kSO74XjF508DPO2ioC5zgBcfLhTsBb3vKW/Fra5p3vfGdu5HIHEdxdDDR2tNvizk/cLYqGrU+zCJSLuFCLK1eu5D7nH4ngmIuydBE0g7qEjvFx7onzTZyD4mKuJI1h4KyNOLnEXaG46s8J6mEPe5iBj5po6FJWopESd4ooQ179F08jgCcRon7hUUrQ8NVu49xD8Bznmne9613dgx/84O5BD3pQHpY4t5TtFFB3cFGO+iXqExA0x0W5+AiaJI1h4KyNaLBwEqLxEicmgp+nPe1p3ZOf/OT8WtrmcY97XPeUpzwlf36VO0dxV4AyVd591m4jGHrCE57Qvf/7v/8wxjtC6gOdeBQX973vfbsnPelJuSsDJe2uKBtleaDcPPCBD+ye/vSndw9/+MPzOC7ORZCN8g61JF0vaxBtxNVZHovjqm35+dTnPOc53Sd/8icPr6TNnvnMZ+aywh0i7j7TaIlH52y4KB69fcQjHpHLyUd+5EeuPhLi5+EFzkFRVzD8rGc9q3vuc5+7enxbu42Aef3pFMrJQx/60O5zP/dzu8c85jF5HE84Ud/E+efe97537kvSGLZgVUXDhZNRNGYf/ehHdw95yEPysLQNj8o99rGPzcPx9IIBkULcJaJuefzjH7/6PDx3Gcsv9dFu4kknygYoE+AOIk+ySKBtEoEzdUfcgeYplic+8Yl5mAv/TBPfrA2fWJA0hYGzNoo7QutX9/18qk6DO8zR4I0GcDRy4mdCtLt4miXKR3xRGD81xMWV9btI2j0EPBHgvPWtb80doi6RKB9RRrjQEm2T+P4EvP3tb8+vqVOizok7z5I0xuzty+TocnchVSz73V43O1p2+/yesyG1JEmSpHPk1a9+df7OhKc+9andS17ykvxEgk8jiOdS4ltW8mVaRsyWqbdI3TKFxkeGx5IkSZLOP76Zny+S42NCfPyQJxbe8IY35KcR3vjGNw5TSZt5x1mSJEnSzvjpn/7p/AWV8Q3s4HF+v8B0d53mjrOBsyRJkqSdwZ3m+HlMPiPP5+Df9ra35Z/R1G7yUW1JkiRJKkTQzBdTEkTjrrvuyn1pGwNnSZIkSTuBX/4I/ARi/L43vwMu1Rg4S5IkSdoJb3nLW/I3afPzmHG3mWF/DlEts3fwGefDq93+/rzbT3H0bLHs9mZ73ZRvZeeR8BthbBKmrv9GpX+X3Q5f6u8PC4znMTDN1LJ31vN/+rFHDozNBdaeugmzT83/fvunpP/Wmr79LGH8Uvgk2VRjc3HqtofJe/EWFZ9pe65HEqYlY0oqpq/9RpiahxrntHv+LW95a/fABz6gu3z5Sv4ZqkuXLnZvfOObuoc85MGT9l0/7+YltNLG+8thqnIJ2+a7dsrQWlPLlBxIlpX1T00aWsmbsA4WHYufx0BaXv8Z50U6Mx11s7tS3Ly4mgb2F91eOlfNDpfdxf0LzXTVxIrHLoNtjm6MqeufMq96e2nvTSi7N0BUPxqDL0EYb8rRm9yog29CEqaWnZwDI7eDc05r1tu6fkqJm7L9/cyH6c8iv7xes2U6kS33x2dSWv8R+4B0jJCTn9JON0pK/9TAkSWMzQBqzkVqSE7afd1B6o4fhbwe/bbTBhm5AzLyf5zxORfSuS8VnrHrz/k3JRFpAaepQ7Zh3qM099hzAFuez/8TMnHejT/+mXvRf63PaKsG8wjMOiX/VygIY0xe8Q0wNu03AOUud8PrjWpvpveouWrZWDs2+iOH909Owypjtev9wGvqP8Kzcu5r5+vfjQuU/fhhjlT4+jp0femnw9yzZSsHajj/Vu7aV5KV17h6f9iuTcmIcZveYybOX+M2Py/zxHrTiyM2KY846vYXKV5+F3ecr6YR+0fdPNUWs8NFCpwvpqmYaNyamXNKxcFamwW/Yur68/xDp+vHgXfLA2d+zH4Y1PVbTmn15JzPNc2ZNeWJG0zKvqRV6efquWZqAqZIq56PPmshLWDGiXt8w7lbTAucFxOLbx84j0/A9MB5fMOHmvNotjch9ayfwHnc/uu3ncBnbBki5ePzn7nGbnuPoJEz4Dj50J2WgJx1Yw9B5jtK/7i/MsY8rXyPFsDIw3eWM2Di8Z/WvxyZAWP3W2lB/g/Do0xNxNTyM8Uq7bcmEax+zg6oqb2d3qPktYLjbXivP3aOp4nV0Y8O631Q/x2l8hulv5ymH6aG7pdNvx8u0pPLPcdAudTTy8tb9jkwTlovF65rtiQtr5HZc69ff550PSnxen08mCE14FpFYJt80axcblrOYW4PMPKou7BMgfNl7jhfSZXUPr9dlqY5InC+ML7OupE2ZcppjMywlTR/zrupy9lRM4JWIo9m6/4mupXrPvOGgj+p/E/N/1t88E2JnGPTx2ZBrLqWhGb55v2p+2CslHAqz9GrP00G1KQVT9l0Vjt21WF28o7B9VrmqGPsEvp7FmPrwCWNDgKPkZmQsy/t/7FZmBtMU6PHSQ2/qdKW89TD6BxIpmx+3gH94Cgp7yl/teCghj0/y1eeRiZiVfeO3Ygh3WPbAFNXn+TdN2H+sy1v/dDd83L5a+2A1vm9te8aZWvBMZT+lYuJ4Zy2sL4YXlP/zgmc+zlW8+U3Y4Zh2ellBJgnF5beLV9el1jjWNR9OdLsbVncxuQNye53XT9FDK4vppjkpPRGn//jcO7qg+e0oPSfm0iH9PMeSYFz6nLgvCRw3lv2j2qnwHmfwHlq4DFx9lsq75Gir+vDvj9RO9wCU8vvzqPyGyvl/aSG/1QcuLmmG29K4BzGrv80q26V77yMW5T/0WAZvXrmn1L+cAPK3+gikGbMgfO4BeQm14Tjh7VOueNNutcfFbweqdmRqn/uO46TTx15++lGInCecg6aMCs5MLn8Tlp/MjbzA/k/Nv84/vPHJYbX1yvXvTRG+5fXLa83pX9K4Dwh//Jac96NzoChm2LK+m+EW7lusr+Rf7Xz+2re2jSN7Uv7P8ddmyaLcevvxWtWO+eO6fH6V8tZX+CG8XlwUvuXhFN/Vba/aphv2z5Io2upy8nfkHHl0ng3vy4nW02Qz6DD8PVjMfmJhWElbMZRSs8in1MXfeDMo9rdlTQiBc77aWfxGee9/f759FbZ22a1zePT3hu5/hu13rHbv+u449zn4dQdMcWUQ2fX5Wu24w+AXAGMf1R0OtId3UhTA+epm95affPEODH9U+SkTc2Am52BN1e+YzcyCWw594zH5gCrzXecJ5i2/lx7kAn59fVirn5+/oyQ6x/yf9wC8mxj1x0mPHEwadtDWsi0RYwvP336p104YN9NOf00A6cGZh+/CHI+ujFYcXRjTF3/jTA68ybLOdcMbBvpyzu/Mk1z+eR+P/9qKeUs24ZBAZ6vlf/hxfG44XX+W+JuaVrzpM8op2XPuOM99hge1rut/k2jy03bZHXROfVYSjn9pqWeHMfcjNk0ZVu+ZFBWf2nlBM59RMG3J6TAmS8H666kiVPgfCEVpvlBWukFHhVIk7S2bothv5/Y2OuVN3nsAiauG2O3Xb15zr+8F2+J/stNNEZf9LlrlAeuX17AtIb7tLJDAlIFNmERU+PmibM3k96Mm2+xadvPxqXyc+LsdT3Y9/n0178cYXTZT/qgeXzDpT/t7+f+GMw19m7zseklePQSUuuQvTdF/nK3kXlAunP7ZWQW0rid/OVqrL9/ed1YL2mYsn7mHrv+fsXDxZMR8n7jGBp5DsmlJz/xMC4FY/OtNO2jFqR76hEwZf1Tkf7RpWeyvHaCx/7lZpMvjNfzNj9mHeugOPdDJ+uUTYtgHBPNF/lx4x5z90vox/SvGY4pSry7T+A8tpGQ667xT0wxW3/sXrv+conb69f+0mv59olJ8/KPMVy+Zs4pT1yRxvXAmX1BjcRy95Zp2e8cAmce076YJphfTRNeTCeevS4/1z0Gs6U4PPfHyBmRZh632f162SlT1m/gPM20Zus07D8D5/Fiv43ff2f/4Jm6BVPnb5Xd271sbz8pnkLOPM5cBJ9jcNKf9lucJGHaPjxM85dn39PrGy3TvhUYk9I/cf9tb9a1sf1T0s5aJ95vmXT+Yr1TwhbWO2X7wbqnrL/s3wp9w3fc8c+xTxkai7or7/+RGbhqu07JwLE7L9zKnYep6Z+otfmT4+bKBvJODpwL5SuGo2xti1MW3HFerSNCwH7KGEu/HA5Mxdkvf053grGBZ75wWKRuffvK1+vHWP9e+stCSowaBnO/eI1yeGrgjPV0cSGWtfAk12yROn7HeZYC5/1UU1zivSFw5tvED0bWPaxjyh1n0jw1cL3V6991fdFZK333ENZaVju6XqOvNQ6Ye3zD5XYw9fCfOn+r7N7uZXt69ckWjgs8WXtfgsenYkr6J5+4lwTOt/b4mbb/2O7xJTRve0rA2CXE2sfOH9s+Ng9ivWPXj2n5P23dmLr+KVh3HENjUH6Ye8r+30urHhs4swDaj+tt/1ObuvPC2PVPdaPSP9JpNvt0gfP2DakHzn3tXypfMbwKnPmThsv3eWuZA+de3z9Znk++d9wHy+LsUS7zeuT58wLLpZ4eH7OIC4dlGmJ41R8WfyKdq1WeGJtfxlu5X7xGOcyrvv44OXaKvibqL8nxPWCzt6XA+c409ujK1e5CiqT3uNLNc7aX0iSVc/fR0VEqfP3G0Y9hMLRMy6qle8ZXeG+TFrDgMYPjRV6j9RhOfrey/py+bdLMB2n7Gquo2tubdsejZZ4/vL/dIn+r6HY8aFBT7s/rlw6cBb/DOL7gzmvlI6H81bTS33q/tf6WsY+Jhdb+m7r/65bd0eFB7ofIr+jv79XuiM27o0Wat1KBtI6Po6NUfipZuDevzz9t+9P8tfohqW9/u3y2tv+Q7a+ozp9abEepcq9l4NTyPe8/i1FB2Rl7/JN+5m2tY5tF/uhRbf2Hh9vz9zSprtUfHPv7HV+wWUl/Pr+l93M3jAu8zuW3kpJN62eZqevr9tNsxWZ5yeX+Lc8VMVzZ/n4JlK/KNI3yx/m/tgX1+jvVX4u+/mK6VVekp3VZtXX8cvxEGsrlhvG536u2T05h6vpbS2jVj3upfizPUdRnzEOekXe1+id/IzvnjmoBGPqI6WJc6ucHKyuR76Z9Fnjn6PKVauA8b52/0sx8O/2qjAzD8frq1au5DqfjeCVv6EfeXLlyJU+3zaVL+TbXVrX67TQiLevnGY4L0rq/Xzv/pZCFuq9S/7Xan2z/ep4xT3QXL17M4zZKeb+/t33dbaQtujF4VoL1H6fhRJCYhjm+8xR521JHf9jOPHEa7I+wYdwgUnSQ9i/lixEzjrOYbFjGhZOzncAyDg9jSdeapXPPRe6kpn6Uyzw+LZsykdMcad3i7sOraT39NHm+1OXNop/GxQcpIl+yGE5vHC6O+u3jf+4PZSHP1YvJubvNv+O0pvLRaJ/V9Evoxdr618OzLKltO3tzWhOB8/LgcneBb9Tm97dIaAqc87lvi42B8/B6tdaatJE1+bgbhjeJdW+S36HhPgXPrt9E7OQpaieeG2FS+tLR0O+fiftgpO0l49hiYuDd0mp47V9IDeuKVsOplb6o7MZJ+y83nMcug3mj2+wgB+bbtT7lWN3+VP728vFx88pfK7BtBdZT1defArc9GlaVPJqoXr7TSWx58sLLunr9lRps83rDsI382X4MLdKJeRtSzYWZWunhRL1NLrtH7P/t+c/hSRHOxXjTZIuraXylDmjW/41936wf1t6/rvqEdRMQbE9D/film3LHMJW/o4M+bwfr62vVj1zYr01xNJQflpu7Ir/7obGpv12czK91sf3bkN1l4MyFTNoUHPeMr13YJGhOuy9l4fYyvn9xqF/J5shqkrzq6sd/U7nc65U2nvP3ctj+KCOlg4ODHJSSH5TFaPTn/Enn3jQmTTU6Af3hWjn+Wu3HwxSY9Wk5OR3pjP24XbkjNmutfxo2vp5/9fKXulb6Uh5sl7Y7X9hf2/4yOQfD+ZtyEV1Mn3oHBI65DdYHncjlpN+xuX0xTH1CrCJPVlh/XQtv+rVibaZSWiDpWa9Hcznn+E798p08HV2+obLsLsSFl5ionDgt4mh5lB+Pph0a/0rxitnKoLlPTyy/X+imc/X68kpMHXu3XA/Dq8D59WlNl9LKFlfv7i6ld+9cpB3OXBf3hue6NyOhWJ04hp27qiDyBmxXa3jlRE4NXNm4YXCT2oFLfZOveNcW0NAMnKpX7NqoeGtW+2GLVsU1rWLjin+tYmlbPyDX1dLHli8Pp+V/a/0tcXxs03r/QiuwbqSvtf/r0v5LXaxh07rq689VWe5vU08f1Rr7d+Q2pDPfcsmJqZ5HNdU7ukkr/7kKWtMsX40Lf/X0pcYY3+5YufjQXH9Dff/xww0p/yuBX3X+3GBm+7anvyZ/o2puGG3fxtb253crSayeP9KMffXTLr+RD/RjeE75PbyS5t5eh8W0bEd0q9dpzv18R6a9/m36JxZOKvdZLf94p5V/tfk58eaG4cgTME22+bD/y3wJDFfPb6w2vV9bPXcM1/fdqkvr3c/vbd/Gw9YdwTR/bf3V819abWXWrH7+SduQLxxtX0p9/pTvqeG/l9pwkc5oD/GauqvWfkl7J62f89/2bST/Iv/XLVOjmx+GGfuoN7jwSj5us23d4E7ZlYO07rXAOTrEHWfyg7wkf6Jc7u0TTNfPX839N0vtm0oBqpUfsHzSynSRZtLH+PJY2o55xq+/1X6up2HZ7eVbruPyL+Vet7/cq9Y/tfXn2dK+L4+fPGqYheGjIXDOeTyUi+gfpe4wHTurj4uyrvT/OBTlNfe0+9d5MkZR5+UX/OH8GQs4iXXEPt2G99f3d07jUB5a++cg5+/xOlYfnU19tnM/5U/UUyeOszTMY+p3La/mpzYirXRg3jRnd5H2MfOltJG+1f7I/ZTu4sv5Yt7Tim/0Z+4+bX1dTLuCB9n2j1K6XpPWyCmW9+nfi+lSnkT8vE28lze8HzyhNi9qzT70mzze9WXVSax7WrM77eChv82U9KFebNvrb80/Lazv825K/rXKT23Z5C2n3al5fDO18n/q8TG1/PNVB7EPYl1l3XShVcAaJs7e1Co/La38a73P+mv7qJY+lt1afqt8tEzNn9b+Y9tr2z9Vbdnk3fZmw+lwfNbWUct/5mvt/xryluWPPUZYb3RjTZ23tf7ae1P3H/ORd2PnJ22nPX5Zx/p6TrP+Vt601l8rG7He2vpbaYtum9MsuzZNzWm2n/dqy596/GNK+su+rnWavGGa3A0TE/+wT+ji+NuG42Ns/rP8qfXH+vkj0g365fmjHA+2rYw/Yt6yw2qYDMqZRJ9L9v2Fx3L961oP5JLXLJL492Tg3L8Xadjm8uWjPshNM3ARKz85H+ss++vjwLpT8HyUOoJklrPSmpfhHDQf9P1y3lLlwkkW0XxcPInFMJrFvjzlCuPIGx6OuyOtj48HHaUouvYFWbHenIlFB54w4ILP8HKjDRe0TyozY4PGBY/+SYmKWr6RITxp2UhCVWP13ZVW5NRwobGC2okVrdU3btg2NW7YNSu+llrZAoF/bZorjQv+rfLV0rhhXH1UBvEkzzat9LXyvyYf92n+2Ed95XncobV9rf1zpf7ARHP+Vr03ZfvRWn7kwybUH/vDBdFtastn23NXWUBr/19oXPlqbV9L7YEXtj93w+tNqjcc0ryXGuWrlvz8xSY86VxLQEtj3m3nYzArX66ZT6xbMP96GYrXpP/ONH/eji3K/FtPC68vc+Wr4mrt+Evz5/xNfZa13qFa/tI0uQ4Zpt2kWv7TdnP41vZftfwknB/XV1/md2zHJuy31vkv0r8pb3I/rWt4uVEt/STzIK2/svnV+fPq0/y19bceeGt8kqYqrzetnwZzpJPyQv7zmrq5VX9eTdO32p8sK99ZHqZjmXm/se40rlZ+TnN+qM3femAgP2WblGUj0kmftNMxiiCG5bFN8V4tf07jFA80VMX5fT0dMV/r/ME21DQemOz4CDfriA6RZ3St9ecHripa8+f2VyWPascPWXY1zR9ZF4spyxPtv0giZSXv9zQc+Xv5cvqTpo+byJRz6jQ+ocC8l2J6Jk7yAzZ5m5hplup3Pkq7l5e3qWthHez7TfnP/Fev9neDOY4YB6bjOJ+lAn0xRcqcv1hGXl16L5/PeE2fL9ga3lvlS/QJeAlGVyfASPTQMfqud/HGMA/jE4bzdFQe6X1+EpLX0UVCGa4VgLxM/uQF8iLNO/SxWHb/Hx5yj1D/rZjxAAAAAElFTkSuQmCC;" vertex="1" parent="1">
          <mxGeometry x="-170" y="170" width="974" height="531" as="geometry" />
        </mxCell>
        <mxCell id="Jfrkg1N4HI_RpHwfWc3V-2" value="Hackathon day" style="rounded=1;whiteSpace=wrap;html=1;fillColor=#d5e8d4;strokeColor=#82b366;" vertex="1" parent="1">
          <mxGeometry x="530" y="260" width="250" height="60" as="geometry" />
        </mxCell>
        <mxCell id="Jfrkg1N4HI_RpHwfWc3V-3" value="Hackathon preparation: company intro, training modules, coaching sessions, talks, etc.&lt;div&gt;&lt;br&gt;&lt;/div&gt;" style="rounded=1;whiteSpace=wrap;html=1;fillColor=#dae8fc;strokeColor=#6c8ebf;align=center;" vertex="1" parent="1">
          <mxGeometry x="-150" y="260" width="660" height="60" as="geometry" />
        </mxCell>
        <mxCell id="Jfrkg1N4HI_RpHwfWc3V-4" value="Pitch" style="rounded=1;whiteSpace=wrap;html=1;fillColor=#e1d5e7;strokeColor=#9673a6;" vertex="1" parent="1">
          <mxGeometry x="670" y="330" width="110" height="60" as="geometry" />
        </mxCell>
        <mxCell id="Jfrkg1N4HI_RpHwfWc3V-5" value="Creation, feedbacks, evaluations" style="rounded=1;whiteSpace=wrap;html=1;fillColor=#fff2cc;strokeColor=#d6b656;" vertex="1" parent="1">
          <mxGeometry x="530" y="330" width="120" height="60" as="geometry" />
        </mxCell>
      </root>
    </mxGraphModel>
  </diagram>
</mxfile>
